<?xml version="1.0" encoding="UTF-8"?>
<svg xmlns="http://www.w3.org/2000/svg" version="1.1" width="300" height="300" viewBox="0 0 300 300"><rect x="0" y="0" width="300" height="300" fill="#ffffff"/><g transform="scale(10.345)"><g transform="translate(0,0)"><path fill-rule="evenodd" d="M8 0L8 4L9 4L9 5L8 5L8 7L9 7L9 6L10 6L10 9L11 9L11 8L12 8L12 9L13 9L13 11L12 11L12 12L11 12L11 13L8 13L8 12L10 12L10 11L11 11L11 10L9 10L9 9L7 9L7 8L4 8L4 9L2 9L2 8L0 8L0 12L1 12L1 13L3 13L3 14L2 14L2 15L1 15L1 16L0 16L0 18L3 18L3 19L2 19L2 20L0 20L0 21L2 21L2 20L5 20L5 19L4 19L4 18L3 18L3 17L4 17L4 16L5 16L5 18L6 18L6 19L7 19L7 20L6 20L6 21L7 21L7 20L9 20L9 21L8 21L8 22L9 22L9 21L12 21L12 22L11 22L11 24L9 24L9 23L8 23L8 25L9 25L9 27L8 27L8 29L10 29L10 27L11 27L11 26L10 26L10 25L11 25L11 24L12 24L12 25L13 25L13 26L15 26L15 27L14 27L14 28L13 28L13 27L12 27L12 28L11 28L11 29L12 29L12 28L13 28L13 29L16 29L16 28L17 28L17 29L18 29L18 28L19 28L19 29L22 29L22 28L24 28L24 29L25 29L25 27L26 27L26 26L27 26L27 29L28 29L28 28L29 28L29 25L28 25L28 24L27 24L27 25L25 25L25 23L27 23L27 22L25 22L25 21L26 21L26 20L22 20L22 19L21 19L21 20L20 20L20 22L19 22L19 21L18 21L18 19L17 19L17 21L16 21L16 20L15 20L15 19L16 19L16 18L17 18L17 17L18 17L18 18L19 18L19 17L20 17L20 18L21 18L21 17L20 17L20 16L19 16L19 17L18 17L18 15L19 15L19 13L20 13L20 14L21 14L21 16L23 16L23 15L24 15L24 16L25 16L25 17L24 17L24 19L27 19L27 20L28 20L28 23L29 23L29 17L28 17L28 16L29 16L29 13L28 13L28 12L29 12L29 8L25 8L25 9L24 9L24 8L23 8L23 9L22 9L22 10L23 10L23 13L20 13L20 12L19 12L19 9L20 9L20 10L21 10L21 9L20 9L20 8L19 8L19 6L20 6L20 7L21 7L21 4L20 4L20 3L21 3L21 2L20 2L20 1L19 1L19 0L18 0L18 1L17 1L17 0L13 0L13 1L11 1L11 2L12 2L12 5L13 5L13 4L14 4L14 5L16 5L16 7L15 7L15 6L14 6L14 9L13 9L13 8L12 8L12 7L13 7L13 6L12 6L12 7L11 7L11 3L10 3L10 2L9 2L9 0ZM14 1L14 2L13 2L13 3L14 3L14 4L15 4L15 3L16 3L16 1ZM18 1L18 3L17 3L17 7L18 7L18 6L19 6L19 5L20 5L20 4L19 4L19 5L18 5L18 3L19 3L19 1ZM14 2L14 3L15 3L15 2ZM16 8L16 9L17 9L17 10L18 10L18 9L19 9L19 8L18 8L18 9L17 9L17 8ZM1 9L1 10L2 10L2 11L1 11L1 12L2 12L2 11L3 11L3 10L2 10L2 9ZM4 9L4 10L7 10L7 9ZM14 9L14 11L13 11L13 12L12 12L12 13L11 13L11 14L7 14L7 13L6 13L6 12L7 12L7 11L5 11L5 12L3 12L3 13L4 13L4 14L5 14L5 13L6 13L6 14L7 14L7 15L5 15L5 16L7 16L7 15L9 15L9 16L10 16L10 17L9 17L9 18L7 18L7 17L6 17L6 18L7 18L7 19L10 19L10 20L12 20L12 21L13 21L13 22L15 22L15 21L13 21L13 20L14 20L14 19L15 19L15 18L13 18L13 17L12 17L12 16L13 16L13 15L12 15L12 16L11 16L11 14L12 14L12 13L13 13L13 14L14 14L14 13L13 13L13 12L14 12L14 11L15 11L15 13L17 13L17 14L18 14L18 13L19 13L19 12L18 12L18 13L17 13L17 11L15 11L15 9ZM23 9L23 10L24 10L24 13L23 13L23 14L24 14L24 13L26 13L26 14L25 14L25 16L26 16L26 17L25 17L25 18L27 18L27 19L28 19L28 18L27 18L27 15L28 15L28 14L27 14L27 11L28 11L28 10L24 10L24 9ZM8 10L8 11L9 11L9 10ZM21 11L21 12L22 12L22 11ZM26 14L26 15L27 15L27 14ZM3 15L3 16L2 16L2 17L3 17L3 16L4 16L4 15ZM14 15L14 17L17 17L17 15ZM22 17L22 18L23 18L23 17ZM10 18L10 19L11 19L11 18ZM12 19L12 20L13 20L13 19ZM17 21L17 22L16 22L16 23L14 23L14 25L15 25L15 24L16 24L16 27L15 27L15 28L16 28L16 27L20 27L20 26L21 26L21 27L23 27L23 25L20 25L20 26L18 26L18 25L19 25L19 24L20 24L20 23L19 23L19 22L18 22L18 21ZM21 21L21 24L24 24L24 21ZM17 22L17 25L18 25L18 24L19 24L19 23L18 23L18 22ZM22 22L22 23L23 23L23 22ZM12 23L12 24L13 24L13 23ZM24 25L24 27L25 27L25 25ZM27 25L27 26L28 26L28 25ZM0 0L0 7L7 7L7 0ZM1 1L1 6L6 6L6 1ZM2 2L2 5L5 5L5 2ZM22 0L22 7L29 7L29 0ZM23 1L23 6L28 6L28 1ZM24 2L24 5L27 5L27 2ZM0 22L0 29L7 29L7 22ZM1 23L1 28L6 28L6 23ZM2 24L2 27L5 27L5 24Z" fill="#000000"/></g></g></svg>
